<svg width="24" height="24" viewBox="0 0 24 24" fill="none" xmlns="http://www.w3.org/2000/svg">
<path d="M22.6288 7.61031C22.6168 6.71055 22.4484 5.81973 22.131 4.9777C21.8558 4.26746 21.4355 3.62243 20.8969 3.08383C20.3583 2.54523 19.7133 2.1249 19.003 1.8497C18.1718 1.53768 17.2937 1.36897 16.4061 1.35074C15.2632 1.29966 14.9009 1.2854 11.9998 1.2854C9.09867 1.2854 8.72682 1.2854 7.59228 1.35074C6.70504 1.3691 5.82733 1.53781 4.9965 1.8497C4.28615 2.12471 3.64102 2.54497 3.1024 3.0836C2.56377 3.62222 2.14351 4.26735 1.8685 4.9777C1.55585 5.80827 1.38751 6.68618 1.37073 7.57348C1.31964 8.71753 1.3042 9.07987 1.3042 11.981C1.3042 14.8821 1.3042 15.2527 1.37073 16.3884C1.38855 17.2771 1.55606 18.1538 1.8685 18.9866C2.14397 19.6967 2.56454 20.3416 3.10335 20.88C3.64215 21.4184 4.28734 21.8385 4.99769 22.1134C5.82624 22.438 6.7041 22.6188 7.59347 22.648C8.73752 22.6991 9.09986 22.7145 12.001 22.7145C14.902 22.7145 15.2739 22.7145 16.4084 22.648C17.296 22.6305 18.1742 22.4622 19.0054 22.1502C19.7155 21.8747 20.3603 21.4543 20.8989 20.9157C21.4374 20.3772 21.8579 19.7323 22.1334 19.0222C22.4458 18.1906 22.6134 17.3139 22.6312 16.4241C22.6823 15.2812 22.6977 14.9189 22.6977 12.0166C22.6953 9.11551 22.6953 8.74723 22.6288 7.61031ZM11.9926 17.4671C8.95848 17.4671 6.50051 15.0092 6.50051 11.975C6.50051 8.94087 8.95848 6.4829 11.9926 6.4829C13.4492 6.4829 14.8462 7.06153 15.8762 8.09151C16.9061 9.12148 17.4848 10.5184 17.4848 11.975C17.4848 13.4316 16.9061 14.8286 15.8762 15.8585C14.8462 16.8885 13.4492 17.4671 11.9926 17.4671ZM17.7034 7.56042C17.5351 7.56057 17.3685 7.52755 17.2131 7.46325C17.0576 7.39895 16.9164 7.30462 16.7974 7.18567C16.6785 7.06672 16.5842 6.92547 16.5199 6.77003C16.4555 6.61458 16.4225 6.44798 16.4227 6.27975C16.4227 6.11165 16.4558 5.9452 16.5201 5.78989C16.5845 5.63459 16.6787 5.49347 16.7976 5.37461C16.9165 5.25574 17.0576 5.16145 17.2129 5.09712C17.3682 5.03279 17.5347 4.99968 17.7028 4.99968C17.8709 4.99968 18.0373 5.03279 18.1926 5.09712C18.3479 5.16145 18.489 5.25574 18.6079 5.37461C18.7268 5.49347 18.8211 5.63459 18.8854 5.78989C18.9497 5.9452 18.9828 6.11165 18.9828 6.27975C18.9828 6.9878 18.4102 7.56042 17.7034 7.56042Z" fill="#052838"/>
<path d="M11.9926 15.5426C13.9629 15.5426 15.5602 13.9453 15.5602 11.975C15.5602 10.0047 13.9629 8.40746 11.9926 8.40746C10.0223 8.40746 8.42507 10.0047 8.42507 11.975C8.42507 13.9453 10.0223 15.5426 11.9926 15.5426Z" fill="#052838"/>
</svg>
