<svg width="24" height="24" viewBox="0 0 24 24" fill="none" xmlns="http://www.w3.org/2000/svg">
<path d="M21.1008 7.24442C21.1163 7.45232 21.1163 7.65903 21.1163 7.86574C21.1163 14.1918 16.3013 21.4814 7.5018 21.4814C4.79078 21.4814 2.27222 20.6961 0.152832 19.3323C0.537744 19.3763 0.9084 19.3917 1.30876 19.3917C3.46259 19.3969 5.55543 18.6767 7.24994 17.3472C6.25134 17.3291 5.2833 16.9996 4.481 16.4048C3.6787 15.8099 3.08218 14.9794 2.77475 14.0291C3.07056 14.073 3.36756 14.1027 3.67882 14.1027C4.10768 14.1027 4.53893 14.0433 4.93928 13.94C3.85554 13.7212 2.88104 13.1337 2.18148 12.2776C1.48192 11.4215 1.10049 10.3494 1.10204 9.24382V9.18442C1.74 9.53964 2.48012 9.76179 3.2642 9.79149C2.60735 9.355 2.06874 8.76271 1.69645 8.06745C1.32415 7.3722 1.12974 6.5956 1.13056 5.80694C1.13056 4.91832 1.36697 4.10335 1.78158 3.39292C2.984 4.87201 4.48369 6.08203 6.18352 6.94464C7.88335 7.80724 9.74541 8.30318 11.6491 8.40034C11.5755 8.04394 11.5303 7.67448 11.5303 7.30382C11.53 6.67532 11.6536 6.05292 11.8939 5.47221C12.1343 4.89149 12.4868 4.36385 12.9312 3.91943C13.3756 3.47502 13.9032 3.12255 14.484 2.88218C15.0647 2.6418 15.6871 2.51824 16.3156 2.51856C17.6937 2.51856 18.9375 3.09592 19.8119 4.02969C20.8832 3.82252 21.9105 3.43144 22.8484 2.87377C22.4913 3.97958 21.7433 4.91725 20.7444 5.51113C21.6946 5.40276 22.6232 5.15289 23.4994 4.76982C22.845 5.7239 22.034 6.56054 21.1008 7.24442Z" fill="#052838"/>
</svg>
