<svg width="59" height="77" viewBox="0 0 59 77" fill="none" xmlns="http://www.w3.org/2000/svg">
<path d="M29.3333 40.3333C26.2778 40.3333 23.6806 39.2639 21.5417 37.125C19.4028 34.9861 18.3333 32.3889 18.3333 29.3333C18.3333 26.2778 19.4028 23.6806 21.5417 21.5417C23.6806 19.4028 26.2778 18.3333 29.3333 18.3333C32.3889 18.3333 34.9861 19.4028 37.125 21.5417C39.2639 23.6806 40.3333 26.2778 40.3333 29.3333C40.3333 32.3889 39.2639 34.9861 37.125 37.125C34.9861 39.2639 32.3889 40.3333 29.3333 40.3333ZM7.33333 77V48.675C5.01111 46.1083 3.20833 43.175 1.925 39.875C0.641667 36.575 0 33.0611 0 29.3333C0 21.1444 2.84167 14.2083 8.525 8.525C14.2083 2.84167 21.1444 0 29.3333 0C37.5222 0 44.4583 2.84167 50.1417 8.525C55.825 14.2083 58.6667 21.1444 58.6667 29.3333C58.6667 33.0611 58.025 36.575 56.7417 39.875C55.4583 43.175 53.6556 46.1083 51.3333 48.675V77L29.3333 69.6667L7.33333 77ZM29.3333 51.3333C35.4444 51.3333 40.6389 49.1944 44.9167 44.9167C49.1944 40.6389 51.3333 35.4444 51.3333 29.3333C51.3333 23.2222 49.1944 18.0278 44.9167 13.75C40.6389 9.47222 35.4444 7.33333 29.3333 7.33333C23.2222 7.33333 18.0278 9.47222 13.75 13.75C9.47222 18.0278 7.33333 23.2222 7.33333 29.3333C7.33333 35.4444 9.47222 40.6389 13.75 44.9167C18.0278 49.1944 23.2222 51.3333 29.3333 51.3333ZM14.6667 66.0917L29.3333 62.3333L44 66.0917V54.725C41.8611 55.9472 39.5542 56.9097 37.0792 57.6125C34.6042 58.3153 32.0222 58.6667 29.3333 58.6667C26.6444 58.6667 24.0625 58.3153 21.5875 57.6125C19.1125 56.9097 16.8056 55.9472 14.6667 54.725V66.0917Z" fill="white"/>
</svg>
