<svg width="74" height="74" viewBox="0 0 74 74" fill="none" xmlns="http://www.w3.org/2000/svg">
<path d="M36.6667 66C41.25 66 45.1458 64.3958 48.3542 61.1875C51.5625 57.9792 53.1667 54.0833 53.1667 49.5C53.1667 44.9167 51.5625 41.0208 48.3542 37.8125C45.1458 34.6042 41.25 33 36.6667 33C32.0833 33 28.1875 34.6042 24.9792 37.8125C21.7708 41.0208 20.1667 44.9167 20.1667 49.5C20.1667 54.0833 21.7708 57.9792 24.9792 61.1875C28.1875 64.3958 32.0833 66 36.6667 66ZM25.9417 28.2333C27.1639 27.5611 28.4625 27.0264 29.8375 26.6292C31.2125 26.2319 32.6028 25.9722 34.0083 25.85L24.75 7.33333H15.5833L25.9417 28.2333ZM47.3917 28.2333L57.8417 7.33333H48.5833L40.7917 22.9167L42.5333 26.4C43.3889 26.6444 44.2139 26.9042 45.0083 27.1792C45.8028 27.4542 46.5972 27.8056 47.3917 28.2333ZM16.1333 61.6C15.0944 59.8278 14.2847 57.9181 13.7042 55.8708C13.1236 53.8236 12.8333 51.7 12.8333 49.5C12.8333 47.3 13.1236 45.1764 13.7042 43.1292C14.2847 41.0819 15.0944 39.1722 16.1333 37.4C13.5667 38.2556 11.4583 39.7681 9.80833 41.9375C8.15833 44.1069 7.33333 46.6278 7.33333 49.5C7.33333 52.3722 8.15833 54.8931 9.80833 57.0625C11.4583 59.2319 13.5667 60.7444 16.1333 61.6ZM57.2 61.6C59.7667 60.7444 61.875 59.2319 63.525 57.0625C65.175 54.8931 66 52.3722 66 49.5C66 46.6278 65.175 44.1069 63.525 41.9375C61.875 39.7681 59.7667 38.2556 57.2 37.4C58.2389 39.1722 59.0486 41.0819 59.6292 43.1292C60.2097 45.1764 60.5 47.3 60.5 49.5C60.5 51.7 60.2097 53.8236 59.6292 55.8708C59.0486 57.9181 58.2389 59.8278 57.2 61.6ZM36.6667 73.3333C34.2222 73.3333 31.8847 72.9819 29.6542 72.2792C27.4236 71.5764 25.3611 70.6139 23.4667 69.3917C22.9167 69.5139 22.3667 69.5903 21.8167 69.6208C21.2667 69.6514 20.6861 69.6667 20.075 69.6667C14.5139 69.6667 9.77778 67.7111 5.86667 63.8C1.95556 59.8889 0 55.1528 0 49.5917C0 44.275 1.77222 39.7222 5.31667 35.9333C8.86111 32.1444 13.2306 30.0361 18.425 29.6083L3.66667 0H29.3333L36.6667 14.6667L44 0H69.6667L55 29.425C60.1944 29.9139 64.5486 32.0528 68.0625 35.8417C71.5764 39.6306 73.3333 44.1833 73.3333 49.5C73.3333 55.1222 71.3778 59.8889 67.4667 63.8C63.5556 67.7111 58.7889 69.6667 53.1667 69.6667C52.6167 69.6667 52.0514 69.6514 51.4708 69.6208C50.8903 69.5903 50.325 69.5139 49.775 69.3917C47.8806 70.6139 45.8333 71.5764 43.6333 72.2792C41.4333 72.9819 39.1111 73.3333 36.6667 73.3333ZM29.8833 59.5833L32.45 51.2417L25.6667 46.3833H34.0083L36.6667 37.5833L39.325 46.3833H47.6667L40.8833 51.2417L43.45 59.5833L36.6667 54.45L29.8833 59.5833Z" fill="white"/>
</svg>
