<svg width="109" height="13" viewBox="0 0 109 13" fill="none" xmlns="http://www.w3.org/2000/svg">
<path d="M4.95592 9.99596C4.23725 9.99596 3.57459 9.86996 2.96792 9.61796C2.36125 9.35662 1.83392 8.99729 1.38592 8.53996C0.947253 8.08262 0.606587 7.55062 0.36392 6.94396C0.121253 6.33729 -8.00639e-05 5.68396 -8.00639e-05 4.98396C-8.00639e-05 4.27462 0.121253 3.62129 0.36392 3.02396C0.606587 2.41729 0.947253 1.88996 1.38592 1.44196C1.82459 0.984623 2.34259 0.634623 2.93992 0.391956C3.54659 0.139957 4.21392 0.0139569 4.94192 0.0139569C5.66059 0.0139569 6.32325 0.139957 6.92992 0.391956C7.54592 0.643956 8.07325 0.993957 8.51192 1.44196C8.95059 1.88996 9.29125 2.41729 9.53392 3.02396C9.77659 3.63062 9.89792 4.28862 9.89792 4.99796C9.89792 5.69796 9.77659 6.35129 9.53392 6.95796C9.29125 7.56462 8.95059 8.09662 8.51192 8.55396C8.07325 9.01129 7.55059 9.36596 6.94392 9.61796C6.34659 9.86996 5.68392 9.99596 4.95592 9.99596ZM5.06792 7.78396C4.54525 7.78396 4.06925 7.66262 3.63992 7.41996C3.21059 7.16796 2.86992 6.83196 2.61792 6.41196C2.37525 5.99196 2.25392 5.51596 2.25392 4.98396C2.25392 4.46129 2.37525 3.98996 2.61792 3.56996C2.86992 3.14996 3.21059 2.81862 3.63992 2.57596C4.07859 2.33329 4.55925 2.21196 5.08192 2.21196C5.48325 2.21196 5.86125 2.28662 6.21592 2.43596C6.57059 2.58529 6.87859 2.80462 7.13992 3.09396L6.39792 3.84996C6.22992 3.66329 6.03392 3.52329 5.80992 3.42996C5.59525 3.33662 5.35259 3.28996 5.08192 3.28996C4.77392 3.28996 4.49392 3.36462 4.24192 3.51396C3.98992 3.65396 3.78925 3.85462 3.63992 4.11596C3.49992 4.36796 3.42992 4.65729 3.42992 4.98396C3.42992 5.31996 3.49992 5.61862 3.63992 5.87996C3.78925 6.14129 3.98992 6.34196 4.24192 6.48196C4.49392 6.62196 4.77392 6.69196 5.08192 6.69196C5.36192 6.69196 5.61392 6.64529 5.83792 6.55196C6.06192 6.44929 6.24859 6.30929 6.39792 6.13196L7.13992 6.88796C6.88792 7.17729 6.57992 7.40129 6.21592 7.55996C5.86125 7.70929 5.47859 7.78396 5.06792 7.78396ZM4.94192 9.42196C5.80059 9.42196 6.55659 9.22596 7.20992 8.83396C7.86325 8.44196 8.37192 7.90996 8.73592 7.23796C9.10925 6.56596 9.29592 5.81462 9.29592 4.98396C9.29592 4.16262 9.10925 3.42062 8.73592 2.75796C8.37192 2.08596 7.86325 1.55396 7.20992 1.16196C6.55659 0.769956 5.80059 0.573956 4.94192 0.573956C4.08325 0.573956 3.32725 0.769956 2.67392 1.16196C2.02059 1.54462 1.51192 2.07196 1.14792 2.74396C0.78392 3.40662 0.60192 4.15329 0.60192 4.98396C0.60192 5.81462 0.78392 6.56596 1.14792 7.23796C1.52125 7.90996 2.03459 8.44196 2.68792 8.83396C3.34125 9.22596 4.09259 9.42196 4.94192 9.42196ZM14.1541 9.05796L17.7381 5.27796C18.1021 4.90462 18.3868 4.58262 18.5921 4.31196C18.7975 4.03196 18.9421 3.77529 19.0261 3.54196C19.1195 3.30862 19.1661 3.06596 19.1661 2.81396C19.1661 2.31929 19.0075 1.93196 18.6901 1.65196C18.3728 1.37196 17.9621 1.23196 17.4581 1.23196C16.9635 1.23196 16.5295 1.35329 16.1561 1.59596C15.7828 1.82929 15.4515 2.19329 15.1621 2.68796L14.2381 1.91796C14.6208 1.28329 15.0828 0.80729 15.6241 0.489957C16.1655 0.16329 16.7908 -4.37498e-05 17.5001 -4.37498e-05C18.0975 -4.37498e-05 18.6155 0.116623 19.0541 0.349957C19.5021 0.58329 19.8475 0.909956 20.0901 1.32996C20.3328 1.74996 20.4541 2.23996 20.4541 2.79996C20.4541 3.20129 20.4028 3.56062 20.3001 3.87796C20.2068 4.19529 20.0341 4.52196 19.7821 4.85796C19.5395 5.18462 19.1988 5.57662 18.7601 6.03396L15.8621 9.01596L14.1541 9.05796ZM14.1541 9.85596V9.05796L15.2741 8.67996H20.6781V9.85596H14.1541ZM25.8864 9.99596C25.1584 9.99596 24.491 9.79062 23.8844 9.37996C23.287 8.96929 22.811 8.39062 22.4564 7.64396C22.1017 6.88796 21.9244 6.00129 21.9244 4.98396C21.9244 3.96662 22.097 3.08462 22.4424 2.33796C22.797 1.59129 23.273 1.01729 23.8704 0.615957C24.4677 0.20529 25.1257 -4.37498e-05 25.8444 -4.37498e-05C26.5817 -4.37498e-05 27.249 0.20529 27.8464 0.615957C28.4437 1.01729 28.915 1.59129 29.2604 2.33796C29.615 3.08462 29.7924 3.97129 29.7924 4.99796C29.7924 6.01529 29.615 6.90196 29.2604 7.65796C28.915 8.40462 28.4437 8.98329 27.8464 9.39396C27.2584 9.79529 26.605 9.99596 25.8864 9.99596ZM25.8584 8.74996C26.3717 8.74996 26.8197 8.60996 27.2024 8.32996C27.5944 8.04062 27.9024 7.61596 28.1264 7.05596C28.3504 6.49596 28.4624 5.80529 28.4624 4.98396C28.4624 4.16262 28.3504 3.47662 28.1264 2.92596C27.9024 2.36596 27.5944 1.94596 27.2024 1.66596C26.8104 1.37662 26.3577 1.23196 25.8444 1.23196C25.3404 1.23196 24.8924 1.37662 24.5004 1.66596C24.1084 1.94596 23.8004 2.36596 23.5764 2.92596C23.3617 3.47662 23.2544 4.16262 23.2544 4.98396C23.2544 5.80529 23.3617 6.49596 23.5764 7.05596C23.8004 7.61596 24.1084 8.04062 24.5004 8.32996C24.8924 8.60996 25.345 8.74996 25.8584 8.74996ZM30.8885 9.05796L34.4725 5.27796C34.8365 4.90462 35.1212 4.58262 35.3265 4.31196C35.5318 4.03196 35.6765 3.77529 35.7605 3.54196C35.8538 3.30862 35.9005 3.06596 35.9005 2.81396C35.9005 2.31929 35.7418 1.93196 35.4245 1.65196C35.1072 1.37196 34.6965 1.23196 34.1925 1.23196C33.6978 1.23196 33.2638 1.35329 32.8905 1.59596C32.5172 1.82929 32.1858 2.19329 31.8965 2.68796L30.9725 1.91796C31.3552 1.28329 31.8172 0.80729 32.3585 0.489957C32.8998 0.16329 33.5252 -4.37498e-05 34.2345 -4.37498e-05C34.8318 -4.37498e-05 35.3498 0.116623 35.7885 0.349957C36.2365 0.58329 36.5818 0.909956 36.8245 1.32996C37.0672 1.74996 37.1885 2.23996 37.1885 2.79996C37.1885 3.20129 37.1372 3.56062 37.0345 3.87796C36.9412 4.19529 36.7685 4.52196 36.5165 4.85796C36.2738 5.18462 35.9332 5.57662 35.4945 6.03396L32.5965 9.01596L30.8885 9.05796ZM30.8885 9.85596V9.05796L32.0085 8.67996H37.4125V9.85596H30.8885ZM41.4587 9.99596C40.8241 9.99596 40.2454 9.87929 39.7227 9.64596C39.2094 9.40329 38.7754 9.05329 38.4207 8.59596L39.3167 7.69996C39.5314 8.02662 39.8254 8.28796 40.1987 8.48396C40.5721 8.67062 40.9874 8.76396 41.4447 8.76396C41.8741 8.76396 42.2427 8.68462 42.5507 8.52596C42.8681 8.35796 43.1154 8.12462 43.2927 7.82596C43.4794 7.52729 43.5727 7.18196 43.5727 6.78996C43.5727 6.38862 43.4794 6.04329 43.2927 5.75396C43.1154 5.45529 42.8634 5.22662 42.5367 5.06796C42.2101 4.90929 41.8227 4.82996 41.3747 4.82996C41.2067 4.82996 41.0387 4.84396 40.8707 4.87196C40.7027 4.89062 40.5394 4.92329 40.3807 4.96996L40.9407 4.21396C41.1181 4.12996 41.3094 4.06462 41.5147 4.01796C41.7201 3.97129 41.9254 3.94796 42.1307 3.94796C42.6534 3.94796 43.1201 4.06929 43.5307 4.31196C43.9507 4.55462 44.2821 4.89529 44.5247 5.33396C44.7767 5.77262 44.9027 6.28129 44.9027 6.85996C44.9027 7.47596 44.7534 8.02196 44.4547 8.49796C44.1654 8.96462 43.7641 9.33329 43.2507 9.60396C42.7374 9.86529 42.1401 9.99596 41.4587 9.99596ZM40.3807 4.96996V4.17196L43.2227 0.937957L44.7907 0.923957L41.8647 4.24196L40.3807 4.96996ZM38.8827 1.31596V0.139957H44.7907V0.923957L43.6427 1.31596H38.8827ZM54.004 9.99596C53.304 9.99596 52.6554 9.86996 52.058 9.61796C51.4607 9.35662 50.938 8.99729 50.49 8.53996C50.0514 8.08262 49.7107 7.55062 49.468 6.94396C49.2254 6.33729 49.104 5.68862 49.104 4.99796C49.104 4.29796 49.2254 3.64462 49.468 3.03796C49.7107 2.43129 50.0514 1.90396 50.49 1.45596C50.938 0.998623 51.456 0.643956 52.044 0.391956C52.6414 0.130623 53.29 -4.37498e-05 53.99 -4.37498e-05C54.7554 -4.37498e-05 55.4274 0.130623 56.006 0.391956C56.5847 0.65329 57.098 1.00796 57.546 1.45596L56.636 2.36596C56.328 2.02062 55.95 1.74996 55.502 1.55396C55.0634 1.35796 54.5594 1.25996 53.99 1.25996C53.4767 1.25996 53.0054 1.35329 52.576 1.53996C52.1467 1.71729 51.7734 1.97396 51.456 2.30996C51.1387 2.64596 50.8914 3.04262 50.714 3.49996C50.546 3.95729 50.462 4.45662 50.462 4.99796C50.462 5.53929 50.546 6.03862 50.714 6.49596C50.8914 6.95329 51.1387 7.34996 51.456 7.68596C51.7734 8.02196 52.1467 8.28329 52.576 8.46996C53.0054 8.64729 53.4767 8.73596 53.99 8.73596C54.5967 8.73596 55.124 8.63796 55.572 8.44196C56.02 8.23662 56.398 7.96129 56.706 7.61596L57.616 8.51196C57.168 8.97862 56.6407 9.34262 56.034 9.60396C55.4367 9.86529 54.76 9.99596 54.004 9.99596ZM61.8143 9.99596C61.161 9.99596 60.573 9.84196 60.0503 9.53396C59.5276 9.22596 59.1123 8.81062 58.8043 8.28796C58.4963 7.75596 58.3423 7.16329 58.3423 6.50996C58.3423 5.86596 58.4963 5.28729 58.8043 4.77396C59.1123 4.25129 59.5276 3.83596 60.0503 3.52796C60.573 3.21996 61.161 3.06596 61.8143 3.06596C62.4583 3.06596 63.0416 3.21996 63.5643 3.52796C64.0963 3.82662 64.5163 4.23729 64.8243 4.75996C65.1323 5.28262 65.2863 5.86596 65.2863 6.50996C65.2863 7.16329 65.1323 7.75596 64.8243 8.28796C64.5163 8.81062 64.0963 9.22596 63.5643 9.53396C63.0416 9.84196 62.4583 9.99596 61.8143 9.99596ZM61.8143 8.77796C62.2343 8.77796 62.6076 8.67996 62.9343 8.48396C63.261 8.28796 63.5176 8.02196 63.7043 7.68596C63.891 7.34062 63.9843 6.94862 63.9843 6.50996C63.9843 6.08062 63.8863 5.69796 63.6903 5.36196C63.5036 5.02596 63.247 4.76462 62.9203 4.57796C62.603 4.38196 62.2343 4.28396 61.8143 4.28396C61.3943 4.28396 61.021 4.38196 60.6943 4.57796C60.3676 4.76462 60.111 5.02596 59.9243 5.36196C59.7376 5.69796 59.6443 6.08062 59.6443 6.50996C59.6443 6.94862 59.7376 7.34062 59.9243 7.68596C60.111 8.02196 60.3676 8.28796 60.6943 8.48396C61.021 8.67996 61.3943 8.77796 61.8143 8.77796ZM66.706 9.85596V3.20596H67.966V9.85596H66.706ZM71.2 9.85596V5.83796C71.2 5.34329 71.046 4.95596 70.738 4.67596C70.4393 4.38662 70.0613 4.24196 69.604 4.24196C69.296 4.24196 69.0206 4.30729 68.778 4.43796C68.5353 4.56862 68.3393 4.75062 68.19 4.98396C68.0406 5.21729 67.966 5.49729 67.966 5.82396L67.448 5.57196C67.448 5.06796 67.5553 4.62929 67.77 4.25596C67.994 3.88262 68.2973 3.59329 68.68 3.38796C69.0626 3.17329 69.492 3.06596 69.968 3.06596C70.4346 3.06596 70.8546 3.16862 71.228 3.37396C71.6106 3.57929 71.9093 3.86862 72.124 4.24196C72.348 4.61529 72.46 5.05862 72.46 5.57196V9.85596H71.2ZM75.694 9.85596V5.83796C75.694 5.34329 75.54 4.95596 75.232 4.67596C74.9333 4.38662 74.56 4.24196 74.112 4.24196C73.804 4.24196 73.524 4.30729 73.272 4.43796C73.0293 4.56862 72.8333 4.75062 72.684 4.98396C72.5346 5.21729 72.46 5.49729 72.46 5.82396L71.746 5.57196C71.774 5.05862 71.9093 4.61996 72.152 4.25596C72.404 3.88262 72.726 3.59329 73.118 3.38796C73.51 3.17329 73.9393 3.06596 74.406 3.06596C74.8913 3.06596 75.3253 3.16862 75.708 3.37396C76.0906 3.57929 76.394 3.86862 76.618 4.24196C76.8513 4.61529 76.968 5.06329 76.968 5.58596V9.85596H75.694ZM82.1825 9.99596C81.6785 9.99596 81.2212 9.89329 80.8105 9.68796C80.4092 9.47329 80.0872 9.17929 79.8445 8.80596C79.6019 8.43262 79.4665 8.00796 79.4385 7.53196V5.52996C79.4665 5.04462 79.6019 4.61996 79.8445 4.25596C80.0965 3.88262 80.4232 3.59329 80.8245 3.38796C81.2352 3.17329 81.6879 3.06596 82.1825 3.06596C82.7892 3.06596 83.3352 3.21996 83.8205 3.52796C84.3152 3.83596 84.7025 4.25129 84.9825 4.77396C85.2625 5.29662 85.4025 5.88462 85.4025 6.53796C85.4025 7.19129 85.2625 7.77929 84.9825 8.30196C84.7025 8.82462 84.3152 9.23996 83.8205 9.54796C83.3352 9.84662 82.7892 9.99596 82.1825 9.99596ZM78.6825 12.642V3.20596H79.9425V4.95596L79.7045 6.56596L79.9425 8.18996V12.642H78.6825ZM81.9725 8.80596C82.3925 8.80596 82.7612 8.70796 83.0785 8.51196C83.3959 8.31596 83.6479 8.04996 83.8345 7.71396C84.0212 7.36862 84.1145 6.97196 84.1145 6.52396C84.1145 6.08529 84.0212 5.69329 83.8345 5.34796C83.6479 5.00262 83.3959 4.73662 83.0785 4.54996C82.7612 4.35396 82.3972 4.25596 81.9865 4.25596C81.5665 4.25596 81.1979 4.35396 80.8805 4.54996C80.5632 4.73662 80.3159 5.00262 80.1385 5.34796C79.9612 5.69329 79.8725 6.08996 79.8725 6.53796C79.8725 6.97662 79.9565 7.36862 80.1245 7.71396C80.3019 8.04996 80.5492 8.31596 80.8665 8.51196C81.1932 8.70796 81.5619 8.80596 81.9725 8.80596ZM89.659 9.99596C89.0523 9.99596 88.5016 9.84662 88.007 9.54796C87.5123 9.23996 87.1203 8.82462 86.831 8.30196C86.551 7.77929 86.411 7.19129 86.411 6.53796C86.411 5.88462 86.551 5.29662 86.831 4.77396C87.1203 4.25129 87.5076 3.83596 87.993 3.52796C88.4876 3.21996 89.043 3.06596 89.659 3.06596C90.163 3.06596 90.611 3.17329 91.003 3.38796C91.4043 3.59329 91.7263 3.88262 91.969 4.25596C92.2116 4.61996 92.347 5.04462 92.375 5.52996V7.53196C92.347 8.00796 92.2116 8.43262 91.969 8.80596C91.7356 9.17929 91.4183 9.47329 91.017 9.68796C90.625 9.89329 90.1723 9.99596 89.659 9.99596ZM89.869 8.80596C90.4943 8.80596 90.9983 8.59596 91.381 8.17596C91.7636 7.74662 91.955 7.20062 91.955 6.53796C91.955 6.08062 91.8663 5.68396 91.689 5.34796C91.521 5.00262 91.2783 4.73662 90.961 4.54996C90.6436 4.35396 90.275 4.25596 89.855 4.25596C89.435 4.25596 89.0616 4.35396 88.735 4.54996C88.4176 4.74596 88.1656 5.01662 87.979 5.36196C87.8016 5.69796 87.713 6.08529 87.713 6.52396C87.713 6.97196 87.8016 7.36862 87.979 7.71396C88.1656 8.04996 88.4223 8.31596 88.749 8.51196C89.0756 8.70796 89.449 8.80596 89.869 8.80596ZM91.871 9.85596V8.06396L92.109 6.43996L91.871 4.82996V3.20596H93.145V9.85596H91.871ZM99.6834 9.85596V5.97796C99.6834 5.47396 99.5248 5.05862 99.2074 4.73196C98.8901 4.40529 98.4794 4.24196 97.9754 4.24196C97.6394 4.24196 97.3408 4.31662 97.0794 4.46596C96.8181 4.61529 96.6128 4.82062 96.4634 5.08196C96.3141 5.34329 96.2394 5.64196 96.2394 5.97796L95.7214 5.68396C95.7214 5.17996 95.8334 4.73196 96.0574 4.33996C96.2814 3.94796 96.5941 3.63996 96.9954 3.41596C97.3968 3.18262 97.8494 3.06596 98.3534 3.06596C98.8574 3.06596 99.3008 3.19196 99.6834 3.44396C100.075 3.69596 100.383 4.02729 100.607 4.43796C100.831 4.83929 100.943 5.26862 100.943 5.72596V9.85596H99.6834ZM94.9794 9.85596V3.20596H96.2394V9.85596H94.9794ZM104.833 9.91196L101.949 3.20596H103.349L105.491 8.45596H105.043L107.297 3.20596H108.697L105.589 9.91196H104.833ZM102.929 12.642L104.889 8.62396L105.589 9.91196L104.329 12.642H102.929Z" fill="#375360"/>
</svg>
